# xmcd
#
# Track frame offsets: 
#        150
#        15783
#        37728
#        51440
#        67192
#        82551
#        100846
#        119613
#        140796
#        160695
#
# Disc length: 2357 seconds
#
# Revision: 1
# Processed by: cddbd v1.5.2PL0 Copyright (c) Steve Scherf et al.
# Submitted via: ExactAudioCopy v1.1
#
DISCID=7709330a
DTITLE=阿銀 SILVER - 青愛
DYEAR=2013
DGENRE=POP
TTITLE0=傾城
TTITLE1=細水長流
TTITLE2=黑夜不再來
TTITLE3=一首獨唱的歌
TTITLE4=假如
TTITLE5=不信愛有罪
TTITLE6=分手總要在雨天
TTITLE7=微雨撲巴黎
TTITLE8=那誰
TTITLE9=流金歲月
EXTD=
EXTT0=
EXTT1=
EXTT2=
EXTT3=
EXTT4=
EXTT5=
EXTT6=
EXTT7=
EXTT8=
EXTT9=
PLAYORDER=
